<?xml version="1.0" encoding="iso-8859-1"?>
<!-- Generator: Adobe Illustrator 19.0.0, SVG Export Plug-In . SVG Version: 6.00 Build 0)  -->
<svg version="1.1" id="Layer_1" xmlns="http://www.w3.org/2000/svg" xmlns:xlink="http://www.w3.org/1999/xlink" x="0px" y="0px"
	 viewBox="0 0 512 512" style="enable-background:new 0 0 512 512;" xml:space="preserve">
<path style="fill:#E2DECC;" d="M467.478,512H44.522C19.933,512,0,492.066,0,467.478V44.522C0,19.933,19.933,0,44.522,0h422.957
	C492.066,0,512,19.933,512,44.522v422.957C512,492.066,492.066,512,467.478,512z"/>
<path style="fill:#FCFAF0;" d="M456.348,489.739H55.652c-18.442,0-33.391-14.949-33.391-33.391V55.652
	c0-18.442,14.949-33.391,33.391-33.391h400.696c18.442,0,33.391,14.949,33.391,33.391v400.696
	C489.739,474.79,474.79,489.739,456.348,489.739z"/>
<path style="fill:#A3E5BD;" d="M434.087,389.565H77.913c-6.147,0-11.13-4.983-11.13-11.13V77.913c0-6.147,4.983-11.13,11.13-11.13
	h356.174c6.147,0,11.13,4.983,11.13,11.13v300.522C445.217,384.582,440.234,389.565,434.087,389.565z"/>
<path style="fill:#B5F7CC;" d="M196.991,66.783h118.018c59.946,23.56,102.382,81.953,102.382,150.261
	c0,89.134-72.258,161.391-161.391,161.391S94.609,306.177,94.609,217.043C94.609,148.736,137.045,90.342,196.991,66.783z"/>
<path style="fill:#FFF48B;" d="M384,217.043c0,70.693-57.307,128-128,128s-128-57.307-128-128s57.307-128,128-128
	S384,146.351,384,217.043z"/>
<path style="fill:#D8BF77;" d="M445.217,289.391v89.043c0,6.147-4.983,11.13-11.13,11.13H77.913c-6.147,0-11.13-4.983-11.13-11.13
	v-89.043H445.217z"/>
<path style="fill:#89643B;" d="M267.13,200.348v89.043c0,6.147-4.983,11.13-11.13,11.13s-11.13-4.983-11.13-11.13v-89.043
	c0-6.147,4.983-11.13,11.13-11.13S267.13,194.2,267.13,200.348z"/>
<path style="fill:#999B2D;" d="M339.487,209.981c-1.755,1.016-3.672,1.498-5.564,1.498c-3.843,0-7.581-1.992-9.645-5.557
	c-5.961-10.303-17.044-16.705-28.92-16.705c-11.877,0-22.959,6.401-28.921,16.705c-2.131,3.684-6.051,5.684-10.026,5.547
	c-0.096,0.002-0.191,0.009-0.286,0.009c-0.041,0-0.081-0.006-0.122-0.006c-0.041,0-0.081,0.006-0.122,0.006
	c-0.148,0-0.297-0.008-0.445-0.013c-0.076,0.001-0.151,0.014-0.227,0.014c-3.843,0-7.581-1.992-9.645-5.557
	c-5.961-10.303-17.044-16.705-28.921-16.705c-11.876,0-22.959,6.401-28.921,16.705c-3.079,5.321-9.889,7.139-15.209,4.059
	c-5.32-3.079-7.138-9.887-4.059-15.209c9.928-17.159,28.394-27.817,48.188-27.817c8.234,0,16.226,1.868,23.482,5.257
	c-4.775-11.662-12.977-22.026-23.815-29.476c-5.067-3.482-6.351-10.411-2.868-15.477s10.413-6.35,15.477-2.868
	c11.365,7.811,20.56,18.05,27.085,29.667c6.525-11.616,15.72-21.855,27.085-29.667c5.067-3.482,11.995-2.198,15.477,2.868
	c3.482,5.065,2.198,11.995-2.868,15.477c-10.838,7.448-19.04,17.812-23.815,29.473c7.254-3.388,15.245-5.255,23.477-5.255
	c19.796,0,38.261,10.659,48.188,27.817C346.625,200.094,344.809,206.903,339.487,209.981z"/>
<path style="fill:#BA9F63;" d="M333.913,289.391c0,6.147-4.983,11.13-11.13,11.13H189.217c-6.147,0-11.13-4.983-11.13-11.13
	c0-6.147,4.983-11.13,11.13-11.13h133.565C328.93,278.261,333.913,283.244,333.913,289.391z M267.13,311.652H244.87
	c-6.147,0-11.13,4.983-11.13,11.13s4.983,11.13,11.13,11.13h22.261c6.147,0,11.13-4.983,11.13-11.13S273.278,311.652,267.13,311.652
	z"/>
<g>
</g>
<g>
</g>
<g>
</g>
<g>
</g>
<g>
</g>
<g>
</g>
<g>
</g>
<g>
</g>
<g>
</g>
<g>
</g>
<g>
</g>
<g>
</g>
<g>
</g>
<g>
</g>
<g>
</g>
</svg>
